<?xml version="1.0" standalone="no"?>
<!DOCTYPE svg PUBLIC "-//W3C//DTD SVG 1.1//EN" "http://www.w3.org/Graphics/SVG/1.1/DTD/svg11.dtd">
<svg t="1514949738898" class="icon" style="fill:#51c332" viewBox="0 0 1024 1024" version="1.1" xmlns="http://www.w3.org/2000/svg" p-id="1018" xmlns:xlink="http://www.w3.org/1999/xlink" width="200" height="200"><defs><style type="text/css"></style></defs><path d="M669.671531 326.363046c10.30674 0 20.506033 0.756223 30.619368 1.882883C672.778288 200.135156 535.815917 104.95233 379.479289 104.95233c-174.781722 0-317.954539 119.136378-317.954539 270.416849 0 87.321788 47.632857 159.032016 127.23073 214.648708l-31.800263 95.6515 111.151519-55.742559c39.771819 7.875365 71.683623 15.969717 111.372553 15.969717 9.976212 0 19.871583-0.494257 29.684066-1.264806-6.212492-21.258163-9.812483-43.523259-9.812483-66.623373C399.350872 439.095573 518.637676 326.363046 669.671531 326.363046zM498.711857 240.154615c23.940249 0 39.800471 15.749706 39.800471 39.675628 0 23.829731-15.860223 39.799448-39.800471 39.799448-23.830755 0-47.742351-15.969717-47.742351-39.799448C450.969507 255.903298 474.881103 240.154615 498.711857 240.154615zM276.187785 319.628668c-23.830755 0-47.879474-15.969717-47.879474-39.799448 0-23.925922 24.048719-39.675628 47.879474-39.675628 23.830755 0 39.689954 15.749706 39.689954 39.675628C315.877739 303.658951 300.018539 319.628668 276.187785 319.628668z" p-id="1019"></path><path d="M959.865819 574.188364c0-127.122259-127.204124-230.743268-270.075065-230.743268-151.279449 0-270.430152 103.621009-270.430152 230.743268 0 127.340223 119.150704 230.741221 270.430152 230.741221 31.664164 0 63.600527-7.984858 95.40386-15.956414l87.210247 47.756677-23.912619-79.46075C912.313803 709.389626 959.865819 645.897569 959.865819 574.188364zM602.111832 534.401196c-15.830547 0-31.79924-15.748682-31.79924-31.813566 0-15.845896 15.968693-31.800263 31.79924-31.800263 24.050766 0 39.800471 15.954367 39.800471 31.800263C641.912303 518.652514 626.162598 534.401196 602.111832 534.401196zM777.005095 534.401196c-15.722076 0-31.582299-15.748682-31.582299-31.813566 0-15.845896 15.860223-31.800263 31.582299-31.800263 23.828708 0 39.799448 15.954367 39.799448 31.800263C816.803519 518.652514 800.833803 534.401196 777.005095 534.401196z" p-id="1020"></path></svg>